<svg id="Layer_1" data-name="Layer 1" xmlns="http://www.w3.org/2000/svg" xmlns:xlink="http://www.w3.org/1999/xlink" width="1920" height="1080" viewBox="0 0 1920 1080"><defs><style>.cls-1{fill:none;}.cls-2{fill:#211121;}.cls-3{fill:#fff;}.cls-4{fill:#643866;}.cls-5{fill:#211323;}.cls-6{clip-path:url(#clip-path);}.cls-7{fill:#6b3434;}.cls-8{fill:#260000;}.cls-9{fill:#545252;}.cls-10{fill:#b5b5b5;}.cls-11{fill:#666464;}.cls-12{fill:#081223;}.cls-13{fill:#030e21;}.cls-14{fill:#0e275e;}</style><clipPath id="clip-path"><polygon class="cls-1" points="956 241 953 527 770 614 773 334 956 241"/></clipPath></defs><title>baggrund</title><rect class="cls-2" width="1920" height="1080"/><polygon class="cls-3" points="1213.06 102.8 1599 197 1598 542 1211.54 426.07 1213.06 102.8"/><polygon class="cls-3" points="1019.27 131.88 691.48 289.38 691.48 732.42 1019.27 527.55 1019.27 131.88"/><polygon class="cls-4" points="1682.29 673.62 1342.54 982.63 695.48 721.42 1083.03 482.4 1682.29 673.62"/><polygon class="cls-2" points="1180 723 1007 865 674.48 734.42 909 590 1180 723"/><rect class="cls-5" x="1330" y="93" width="8" height="397"/><rect class="cls-5" x="1463" y="142" width="8" height="397"/><rect class="cls-5" x="1395.88" y="-4.76" width="7.7" height="536.72" transform="translate(778.58 1545.36) rotate(-74.81)"/><g class="cls-6"><image width="1001" height="1498" transform="translate(722.29 217.6) scale(0.28)" xlink:href="baggrund1.png"/></g><polygon class="cls-3" points="763 616 959 497 1276 607 1100 744 763 616"/><polygon class="cls-7" points="763 657 1101 787 1101 743 763 616 763 657"/><polygon class="cls-7" points="1276 646 1276 607 1101 743 1101 787 1276 646"/><polygon class="cls-8" points="1563.85 710.45 1456 674 1320 774 1424.14 822.39 1563.85 710.45"/><polygon points="1565 715 1425 828 1423.51 822.07 1563.85 710.45 1565 715"/><polygon points="1321 781 1320 774 1423.51 822.07 1425 828 1321 781"/><path class="cls-9" d="M1405,753s48,15,48,19S1405,753,1405,753Z"/><path class="cls-10" d="M1501,737l-48,35s2-3-47.21-18.62C1406,753,1455,723,1455,723S1501,734,1501,737Z"/><path class="cls-11" d="M1447,743c-1,1-2,0-3,1s2,7,9,5c3-2,1-2,2-3s3,0,4-1,0-5-9-4C1448,741,1448,742,1447,743Z"/><path class="cls-12" d="M820.73,742.5c0,7.46-15.39,13.5-34.37,13.5S752,750,752,742.5,767.39,729,786.36,729a70.67,70.67,0,0,1,23.14,3.52C816.4,735,820.73,738.54,820.73,742.5Z"/><path class="cls-12" d="M796,687s-6.43,45,11.29,45.52S770,732,770,732s15-6,11-45S796,687,796,687Z"/><ellipse class="cls-13" cx="788" cy="690.5" rx="70" ry="27.5"/><ellipse class="cls-14" cx="788" cy="687.5" rx="70" ry="27.5"/></svg>
