<svg id="Layer_1" data-name="Layer 1" xmlns="http://www.w3.org/2000/svg" width="5290" height="2630" viewBox="0 0 5290 2630"><defs><style>.cls-1{fill:#89cce5;}.cls-2{fill:#f4dac9;}.cls-3{fill:#94b6ca;}.cls-4{fill:#7999a5;}.cls-5{fill:#425889;}.cls-6{fill:#06171c;}.cls-7{fill:#0d313f;}.cls-8{fill:#7698a8;}.cls-9{fill:#c3d8e2;}.cls-10{fill:#051216;}.cls-11{fill:#211838;}.cls-12{fill:#3a2b5e;}.cls-13{fill:#2a365b;}.cls-14{fill:#f28731;}.cls-15{fill:#4e616d;}</style></defs><title>taleboble_2</title><path class="cls-1" d="M3965.8,1825.18V402.88c0-208.81-170.85-379.66-379.66-379.66H372.42C163.61,23.22-7.23,194.07-7.23,402.88v1422.3c0,208.81,170.84,379.66,379.65,379.66H3440.9c326.46,286.57,396.1,346.34,396.74,345.62s77.32,33.33,43-28.67c-52.32-94.6-89-246.34-80.95-383.23C3899.8,2070,3965.8,1954.94,3965.8,1825.18Z"/><circle class="cls-2" cx="4613.74" cy="2022.25" r="547"/><polygon class="cls-3" points="4547.23 2561.6 4400.6 2534.46 4441.22 2239.66 4589.53 2257.73 4547.23 2561.6"/><path class="cls-4" d="M4441.89,2254.3l-14.48,178.95c-.51,6.24-7.91,70.86-3.58,66.15L4592,2271.83a6.44,6.44,0,0,0-4.44-10.76l-138.14-12.77A6.77,6.77,0,0,0,4441.89,2254.3Z"/><path class="cls-5" d="M4458.5,2399.42l95.34-111.64a6.82,6.82,0,0,0-4.68-11.2l-83.94-10a7.19,7.19,0,0,0-8.14,6.28l-10.7,117.77c-.67,7.42,5,12.85,10,10.51A6.52,6.52,0,0,0,4458.5,2399.42Z"/><path class="cls-6" d="M4604.77,1792s65.89-233.43,170.18-120.36S4860.71,2103,4860.71,2103l-26.83,334.29s-107.55,15.1-118.32,74.26-70-53.08-70-53.08Z"/><path class="cls-3" d="M4328.9,1856.38h247.52a113,113,0,0,1,113,113v247.57a0,0,0,0,1,0,0H4328.9a0,0,0,0,1,0,0V1856.38A0,0,0,0,1,4328.9,1856.38Z" transform="translate(299.17 -562.67) rotate(7.38)"/><path class="cls-7" d="M4692.73,2054.34c17.68-315.87-241.52-137.62-241.52-137.62-53.06-117.11-115.9,46.58-115.9,46.58s-35.29-300.13,271.27-234c150.35,32.44,86.15,325,86.15,325"/><path class="cls-3" d="M4661.43,2238.28l-293.6,154.77a18.78,18.78,0,0,1-27.25-13.29l-33.74-187.43Z"/><path class="cls-8" d="M4347.88,2017.63l27.82,156.07s67.09-65.67,56.83-140.21"/><circle class="cls-9" cx="4397" cy="2073.84" r="21"/><path class="cls-7" d="M4421.09,2067.83c-39.55-18.09-75.41-11.17-75.76-11.1l-1.58-7.84c1.56-.31,38.78-7.5,80.67,11.67Z"/><circle class="cls-10" cx="4401.63" cy="2063.66" r="6"/><path class="cls-11" d="M4477.48,2040.76c91.29-39.16,147.58,5.69,147.58,5.69"/><path class="cls-11" d="M4301.63,2010.57c95.66-26.73,145.52,25.18,145.52,25.18"/><path class="cls-12" d="M4354.79,2257.36l30.69-33L4394,2240l34.11-12.42,24.46,50.06S4362.65,2325.55,4354.79,2257.36Z"/><path class="cls-5" d="M4397.59,2296c-8.87.33-17.54-.91-24.92-4.78-11.3-5.93-18-17.23-19.87-33.59l-.1-.91,33.2-35.7,9.06,16.53,34.19-12.44,26.11,53.4-1.71.91C4452,2280.21,4423.9,2295,4397.59,2296Zm-40.7-37.92c1.86,14.47,7.79,24.43,17.64,29.6,24.49,12.85,66.43-6.48,75.42-10.92l-22.81-46.66-34,12.39-8-14.69Z"/><path class="cls-12" d="M4357,2262.86c10.49-8.34,29.78-14.07,94.29,14.8"/><path class="cls-5" d="M4450.67,2279c-62.93-28.16-82.2-23.39-92.75-15l-1.86-2.35c11.25-8.95,31.44-14.2,95.84,14.62Z"/><path class="cls-13" d="M4408.66,2193.05c-22.85-3.39-28.28-4.2-29.44-8.11-.91-3.05,1.68-5.34,6.36-9.49,28.43-25.16,33.25-50.92,35.57-63.31l4.91.92c-7.45,39.83-27.52,57.6-37.16,66.14a47.48,47.48,0,0,0-4.53,4.31c2.62,1.27,12.19,2.69,25,4.6Z"/><path class="cls-8" d="M4594.16,2047.5l-82.49,69.11L4493,2152.33s-34.57-75.32-15.16-111.52Z"/><circle class="cls-9" cx="4540.87" cy="2094.51" r="21"/><path class="cls-7" d="M4573.47,2093c-37.26-22.17-73.77-19.21-74.14-19.17l-.72-8c1.58-.14,39.36-3.29,79,20.26Z"/><circle class="cls-10" cx="4546.46" cy="2083.29" r="6"/><path class="cls-14" d="M4634.3,2575.37a570.55,570.55,0,0,1-221.15-35.29,563.2,563.2,0,0,1-183.71-111.84A551.32,551.32,0,0,1,4102,2256.92a545.36,545.36,0,0,1-16-430.69,550.94,550.94,0,0,1,114.38-180.31,563.22,563.22,0,0,1,174.9-125.17,576.73,576.73,0,0,1,439.07-16.32A563.41,563.41,0,0,1,4998,1616.27a551.05,551.05,0,0,1,127.45,171.32,545.31,545.31,0,0,1,16,430.69,551.07,551.07,0,0,1-114.39,180.31,563.34,563.34,0,0,1-174.89,125.17A570.6,570.6,0,0,1,4634.3,2575.37Zm-40.6-1092.24a556.53,556.53,0,0,0-212.6,50.34,549.52,549.52,0,0,0-170.57,122.07A537.2,537.2,0,0,0,4099,1831.29a531.38,531.38,0,0,0,15.59,419.61,537.48,537.48,0,0,0,124.24,167A549.71,549.71,0,0,0,4418,2527,562.76,562.76,0,0,0,4846.38,2511,549.38,549.38,0,0,0,5017,2389a537.22,537.22,0,0,0,111.5-175.74,531.32,531.32,0,0,0-15.6-419.61,537,537,0,0,0-124.24-167,549.39,549.39,0,0,0-179.16-109.07A556.6,556.6,0,0,0,4593.7,1483.13Z"/><polygon class="cls-15" points="4408.42 2192.5 4401.29 2228.02 4388.28 2189.24 4408.42 2192.5"/></svg>
