<svg id="Layer_1" data-name="Layer 1" xmlns="http://www.w3.org/2000/svg" width="520" height="290" viewBox="0 0 520 290"><defs><style>.cls-1{fill:#d3d3d3;}.cls-2{fill:#070707;}.cls-3{fill:#48a6cc;}.cls-4{fill:#f4912d;}</style></defs><title>telefon_aktiv</title><path class="cls-1" d="M17.84,112.8,193.29,6.28a11.4,11.4,0,0,1,9.66-1L499,108a9.12,9.12,0,0,1,2.62,15.82L342.93,247.35a9.16,9.16,0,0,1-8.85,1.33L19.34,129.13A9.13,9.13,0,0,1,17.84,112.8Z"/><path class="cls-2" d="M34.88,161.5l305,122.65a6.35,6.35,0,0,0,8.54-7.25l-4.79-22.17a6.33,6.33,0,0,0-3.76-4.51L15.88,114.5c-3.35-1.27-4.88,16.74-5,21.48a11.3,11.3,0,0,1-.08,1.15L10.32,141a11.66,11.66,0,0,0,4.5,10.78C20.64,156.13,30.12,159.63,34.88,161.5Z"/><path class="cls-2" d="M509.77,148.92l-.83-27.5a7,7,0,0,0-.32-1.92l0-.09a6.28,6.28,0,0,0-.76-1.48l-4.95-7.43,1,2.46a7.34,7.34,0,0,1,.13,5.12l-1.13,3.25a7.24,7.24,0,0,1-2.43,3.39L344.84,245.64c-6.18,7.33-14.55-1.16-14,1.86l4,31c0,6.2,12.23,9,17,5L507.12,154.78A7.31,7.31,0,0,0,509.77,148.92Z"/><polygon class="cls-3" points="80.88 125.08 226.63 30.5 462.88 113.5 325.7 224.5 80.88 125.08"/><path class="cls-4" d="M134.7,132l46.06,19.74a7.78,7.78,0,0,0,7.71-.92l92.32-69A7.76,7.76,0,0,0,279,68.36l-43.24-17.3a7.75,7.75,0,0,0-7.34.84l-95.13,66.59A7.77,7.77,0,0,0,134.7,132Z"/><path d="M119.07,85.67l44.36-30.78a2.26,2.26,0,0,0-.45-4h0a2.25,2.25,0,0,0-2.09.22L115.82,81.52a2.25,2.25,0,0,0,.1,3.8l.71.43A2.27,2.27,0,0,0,119.07,85.67Z"/><ellipse cx="95.8" cy="99.66" rx="7.85" ry="3.07" transform="translate(-38.77 68.05) rotate(-32.91)"/><ellipse cx="407.76" cy="177.05" rx="23.01" ry="8.99" transform="translate(-30.75 249.97) rotate(-32.91)"/></svg>
