<svg id="Layer_1" data-name="Layer 1" xmlns="http://www.w3.org/2000/svg" width="520" height="290" viewBox="0 0 520 290"><defs><style>.cls-1{fill:#d3d3d3;}.cls-2{fill:#070707;}</style></defs><title>telefon_inaktiv</title><path class="cls-1" d="M16.84,112.8,192.29,6.28a11.4,11.4,0,0,1,9.66-1L498,108a9.12,9.12,0,0,1,2.62,15.82L341.93,247.35a9.16,9.16,0,0,1-8.85,1.33L18.34,129.13A9.13,9.13,0,0,1,16.84,112.8Z"/><path class="cls-2" d="M33.88,161.5l305,122.65a6.35,6.35,0,0,0,8.54-7.25l-4.79-22.17a6.33,6.33,0,0,0-3.76-4.51L14.88,114.5c-3.35-1.27-4.88,16.74-5,21.48a11.3,11.3,0,0,1-.08,1.15L9.32,141a11.66,11.66,0,0,0,4.5,10.78C19.64,156.13,29.12,159.63,33.88,161.5Z"/><path class="cls-2" d="M508.77,148.92l-.83-27.5a7,7,0,0,0-.32-1.92l0-.09a6.28,6.28,0,0,0-.76-1.48l-4.95-7.43,1,2.46a7.34,7.34,0,0,1,.13,5.12l-1.13,3.25a7.24,7.24,0,0,1-2.43,3.39L343.84,245.64c-6.18,7.33-14.55-1.16-14,1.86l4,31c0,6.2,12.23,9,17,5L506.12,154.78A7.31,7.31,0,0,0,508.77,148.92Z"/><polygon points="79.88 125.08 225.63 30.5 461.88 113.5 324.7 224.5 79.88 125.08"/><path d="M118.07,85.67l44.36-30.78a2.26,2.26,0,0,0-.45-4h0a2.25,2.25,0,0,0-2.09.22L114.82,81.52a2.25,2.25,0,0,0,.1,3.8l.71.43A2.27,2.27,0,0,0,118.07,85.67Z"/><ellipse cx="94.8" cy="99.66" rx="7.85" ry="3.07" transform="translate(-38.93 67.5) rotate(-32.91)"/><ellipse cx="406.76" cy="177.05" rx="23.01" ry="8.99" transform="translate(-30.91 249.43) rotate(-32.91)"/></svg>
